<svg width="7" height="15" viewBox="0 0 7 15" fill="none" xmlns="http://www.w3.org/2000/svg">
<path d="M1.16129 9.05991e-05C1.31069 -0.000417709 1.4583 0.0325546 1.59328 0.0965834C1.72825 0.160612 1.84717 0.254071 1.94129 0.370091L6.77129 6.37009C6.91837 6.54902 6.99878 6.77347 6.99878 7.00509C6.99878 7.23672 6.91837 7.46116 6.77129 7.64009L1.77129 13.6401C1.60155 13.8443 1.35764 13.9727 1.09322 13.9971C0.828789 14.0215 0.565508 13.9398 0.361291 13.7701C0.157075 13.6004 0.0286508 13.3564 0.00427103 13.092C-0.0201087 12.8276 0.0615525 12.5643 0.231291 12.3601L4.17619 7.62974C4.48151 7.26363 4.48595 6.73291 4.1868 6.36175L0.381292 1.64009C0.259009 1.49331 0.181332 1.31456 0.157452 1.12502C0.133573 0.935468 0.164489 0.743043 0.246545 0.570516C0.328601 0.397988 0.458361 0.252577 0.620471 0.151486C0.782582 0.050396 0.970258 -0.002141 1.16129 9.05991e-05Z" fill="currentColor"/>
</svg>
