<svg width="18" height="20" viewBox="0 0 18 20" fill="none" xmlns="http://www.w3.org/2000/svg">
    <path d="M0.464889 19.9964C0.399596 19.9928 0.335695 19.9765 0.276908 19.9486C0.21812 19.9207 0.165623 19.8816 0.122476 19.8337C0.079329 19.7858 0.0463945 19.73 0.0255931 19.6696C0.00479181 19.6092 -0.00346015 19.5453 0.00131632 19.4817C0.288881 15.3866 4.24835 12.1918 8.99962 12.1918C13.7509 12.1918 17.7103 15.3866 17.9989 19.4605C18.0076 19.5886 17.9638 19.7149 17.877 19.8116C17.7902 19.9082 17.3815 19.9879 17.25 19.9964C17.1185 20.0049 16.7677 19.8986 16.6685 19.814C16.5694 19.7294 16.5087 19.6099 16.5 19.4817C16.2357 15.9013 13.2233 13.569 8.99962 13.569C4.75407 13.569 1.74195 15.9656 1.5 19.546C1.49084 19.6661 1.26855 19.7505 1.17916 19.8337C1.08977 19.9169 0.750001 19.9964 0.85942 20L0.464889 19.9964Z" fill="currentColor"/>
    <path fill-rule="evenodd" clip-rule="evenodd" d="M4.01098 2.53943C3.35171 3.47907 2.99988 4.58377 3 5.71382C2.99969 6.4641 3.15406 7.20709 3.45545 7.90032C3.75684 8.59355 4.19874 9.22343 4.75589 9.75396C5.31305 10.2845 5.97455 10.7053 6.70257 10.9923C7.43059 11.2792 8.21087 11.4268 8.99881 11.4265C10.1856 11.4267 11.3458 11.0918 12.3326 10.4642C13.3195 9.83649 14.0887 8.94424 14.543 7.90027C14.9973 6.8563 15.1162 5.70749 14.8848 4.59914C14.6534 3.49079 14.082 2.47268 13.2428 1.67357C12.4037 0.874471 11.3346 0.33027 10.1706 0.109795C9.00666 -0.11068 7.80018 0.00247648 6.70376 0.434952C5.60735 0.867428 4.67025 1.5998 4.01098 2.53943ZM5.25823 3.33289C4.76378 4.03762 4.49991 4.86614 4.5 5.71368C4.49977 6.27639 4.61554 6.83363 4.84159 7.35355C5.06763 7.87347 5.39905 8.34589 5.81692 8.74378C6.23479 9.14168 6.73091 9.45727 7.27693 9.67251C7.82294 9.88774 8.40815 9.99841 8.99911 9.99819C9.88918 9.99836 10.7593 9.74718 11.4995 9.27643C12.2396 8.80568 12.8165 8.1365 13.1572 7.35352C13.498 6.57054 13.5872 5.70893 13.4136 4.87767C13.24 4.0464 12.8115 3.28282 12.1821 2.68349C11.5528 2.08417 10.7509 1.67601 9.87796 1.51066C9.00499 1.3453 8.10013 1.43017 7.27782 1.75453C6.45551 2.07888 5.75268 2.62816 5.25823 3.33289Z" fill="currentColor"/>
</svg>
