<svg width="18" height="20" viewBox="0 0 18 20" fill="none" xmlns="http://www.w3.org/2000/svg">
  <path d="M18 1C18 0.447716 17.5523 0 17 0H1C0.447716 0 0 0.447716 0 1C0 1.55228 0.447716 2 1 2H17C17.5523 2 18 1.55228 18 1Z" fill="currentColor"/>
  <path d="M18 10C18 9.44772 17.5523 9 17 9H1C0.447716 9 0 9.44772 0 10C0 10.5523 0.447716 11 1 11H17C17.5523 11 18 10.5523 18 10Z" fill="currentColor"/>
  <path d="M9 19C9 18.4477 8.55228 18 8 18H1C0.447716 18 0 18.4477 0 19C0 19.5523 0.447716 20 1 20H8C8.55228 20 9 19.5523 9 19Z" fill="currentColor"/>
</svg>
