<svg width="24" height="20" viewBox="0 0 24 20" fill="none" xmlns="http://www.w3.org/2000/svg">
<path d="M24 3.71901C24 1.65289 22.3733 0 20.3733 0H3.62667C1.62667 0 0 1.65289 0 3.71901V16.2534C0 18.3196 1.62667 20 3.62667 20H20.3733C22.3733 20 24 18.3196 24 16.2534V3.71901ZM1.6 1.65289C2.10667 1.12948 2.82667 0.798898 3.62667 0.798898H20.3733C21.1733 0.798898 21.8667 1.12948 22.4 1.65289C22.88 2.14876 23.1733 2.80992 23.2267 3.52617L13.6 10.6887C13.12 11.0468 12.56 11.2121 12.0267 11.2121C11.4667 11.2121 10.9067 11.0468 10.4533 10.6887L0.826667 3.52617C0.826667 2.80992 1.14667 2.14876 1.6 1.65289ZM23.2267 16.2534C23.2267 17.0799 22.9067 17.7961 22.4 18.3471C21.8933 18.8705 21.1733 19.2011 20.3733 19.2011H3.62667C2.82667 19.2011 2.13333 18.8705 1.6 18.3471C1.09333 17.7961 0.773333 17.0799 0.773333 16.2534V4.51791L9.97333 11.3499C10.5867 11.7906 11.3067 12.0386 12 12.0386C12.72 12.0386 13.44 11.8182 14.0267 11.3499L23.2267 4.51791V16.2534Z" fill="currentColor"/>
<path d="M24 3.71901C24 1.65289 22.3733 0 20.3733 0H3.62667C1.62667 0 0 1.65289 0 3.71901V16.2534C0 18.3196 1.62667 20 3.62667 20H20.3733C22.3733 20 24 18.3196 24 16.2534V3.71901ZM1.6 1.65289C2.10667 1.12948 2.82667 0.798898 3.62667 0.798898H20.3733C21.1733 0.798898 21.8667 1.12948 22.4 1.65289C22.88 2.14876 23.1733 2.80992 23.2267 3.52617L13.6 10.6887C13.12 11.0468 12.56 11.2121 12.0267 11.2121C11.4667 11.2121 10.9067 11.0468 10.4533 10.6887L0.826667 3.52617C0.826667 2.80992 1.14667 2.14876 1.6 1.65289ZM23.2267 16.2534C23.2267 17.0799 22.9067 17.7961 22.4 18.3471C21.8933 18.8705 21.1733 19.2011 20.3733 19.2011H3.62667C2.82667 19.2011 2.13333 18.8705 1.6 18.3471C1.09333 17.7961 0.773333 17.0799 0.773333 16.2534V4.51791L9.97333 11.3499C10.5867 11.7906 11.3067 12.0386 12 12.0386C12.72 12.0386 13.44 11.8182 14.0267 11.3499L23.2267 4.51791V16.2534Z" fill="currentColor"/>
</svg>
