<svg width="25" height="23" viewBox="0 0 25 23" fill="none" xmlns="http://www.w3.org/2000/svg">
<path d="M7.12575 23C5.23804 22.993 3.42953 22.1939 2.09462 20.7769C0.759721 19.36 0.00680818 17.4402 0 15.4362V7.56292C0.00659117 5.55898 0.759447 3.63905 2.09442 2.2222C3.4294 0.805356 5.23804 0.00652828 7.12575 0H17.8758C19.7634 0.00629892 21.572 0.805148 22.9068 2.2221C24.2416 3.63905 24.9941 5.55907 25 7.56292V15.4362C24.9938 17.4401 24.2413 19.3601 22.9066 20.7771C21.5719 22.1942 19.7634 22.9932 17.8758 23H7.12575ZM0.834961 7.56292V15.4362C0.840451 17.2058 1.50499 18.9012 2.68351 20.1526C3.86204 21.4041 5.45886 22.1099 7.12575 22.1162H17.8758C19.5426 22.1099 21.1394 21.4041 22.3178 20.1526C23.4962 18.9012 24.1605 17.2057 24.1658 15.4362V7.56292C24.1605 5.79355 23.4962 4.09813 22.3178 2.84681C21.1394 1.5955 19.5425 0.88985 17.8758 0.883785H7.12575C5.45893 0.889849 3.86206 1.59553 2.68351 2.84681C1.50496 4.0981 0.840452 5.79347 0.834961 7.56292ZM8.33496 11.9419C8.33496 10.9796 8.60374 10.0388 9.10736 9.2387C9.61098 8.43857 10.3269 7.81499 11.1643 7.44673C12.0018 7.07846 12.9234 6.9821 13.8125 7.16984C14.7015 7.35758 15.5182 7.821 16.1592 8.50146C16.8001 9.18192 17.2367 10.0488 17.4135 10.9927C17.5904 11.9365 17.4996 12.9148 17.1527 13.8038C16.8058 14.6929 16.2184 15.4529 15.4647 15.9875C14.711 16.5221 13.8248 16.8075 12.9183 16.8075C11.7045 16.8028 10.5417 16.2885 9.68374 15.3769C8.82581 14.4653 8.34243 13.2305 8.33913 11.9419H8.33496ZM9.16829 11.9419C9.16829 12.7292 9.38826 13.499 9.80031 14.1536C10.2124 14.8083 10.798 15.3185 11.4833 15.6198C12.1685 15.9211 12.9225 16 13.6499 15.8464C14.3773 15.6927 15.0455 15.3136 15.57 14.7569C16.0944 14.2001 16.4516 13.4908 16.5963 12.7186C16.741 11.9463 16.6667 11.1459 16.3829 10.4185C16.099 9.69107 15.6184 9.06934 15.0017 8.63191C14.385 8.19448 13.66 7.96097 12.9183 7.96097C11.9252 7.96471 10.9739 8.38548 10.272 9.13136C9.57018 9.87725 9.17488 10.8876 9.17246 11.9419H9.16829ZM18.335 5.75378C18.335 5.49133 18.4083 5.23476 18.5456 5.01654C18.683 4.79832 18.8782 4.62821 19.1066 4.52778C19.3351 4.42734 19.5863 4.40109 19.8288 4.45229C20.0713 4.50349 20.294 4.62988 20.4689 4.81546C20.6437 5.00104 20.7627 5.23752 20.811 5.49493C20.8592 5.75234 20.8345 6.01907 20.7398 6.26155C20.6452 6.50402 20.485 6.7113 20.2794 6.85711C20.0739 7.00292 19.8322 7.08075 19.585 7.08075C19.2542 7.07958 18.9373 6.93921 18.7038 6.69048C18.4703 6.44175 18.3391 6.10495 18.3391 5.75378H18.335Z" fill="currentColor"/>
<path d="M7.12575 23C5.23804 22.993 3.42953 22.1939 2.09462 20.7769C0.759721 19.36 0.00680818 17.4402 0 15.4362V7.56292C0.00659117 5.55898 0.759447 3.63905 2.09442 2.2222C3.4294 0.805356 5.23804 0.00652828 7.12575 0H17.8758C19.7634 0.00629892 21.572 0.805148 22.9068 2.2221C24.2416 3.63905 24.9941 5.55907 25 7.56292V15.4362C24.9938 17.4401 24.2413 19.3601 22.9066 20.7771C21.5719 22.1942 19.7634 22.9932 17.8758 23H7.12575ZM0.834961 7.56292V15.4362C0.840451 17.2058 1.50499 18.9012 2.68351 20.1526C3.86204 21.4041 5.45886 22.1099 7.12575 22.1162H17.8758C19.5426 22.1099 21.1394 21.4041 22.3178 20.1526C23.4962 18.9012 24.1605 17.2057 24.1658 15.4362V7.56292C24.1605 5.79355 23.4962 4.09813 22.3178 2.84681C21.1394 1.5955 19.5425 0.88985 17.8758 0.883785H7.12575C5.45893 0.889849 3.86206 1.59553 2.68351 2.84681C1.50496 4.0981 0.840452 5.79347 0.834961 7.56292ZM8.33496 11.9419C8.33496 10.9796 8.60374 10.0388 9.10736 9.2387C9.61098 8.43857 10.3269 7.81499 11.1643 7.44673C12.0018 7.07846 12.9234 6.9821 13.8125 7.16984C14.7015 7.35758 15.5182 7.821 16.1592 8.50146C16.8001 9.18192 17.2367 10.0488 17.4135 10.9927C17.5904 11.9365 17.4996 12.9148 17.1527 13.8038C16.8058 14.6929 16.2184 15.4529 15.4647 15.9875C14.711 16.5221 13.8248 16.8075 12.9183 16.8075C11.7045 16.8028 10.5417 16.2885 9.68374 15.3769C8.82581 14.4653 8.34243 13.2305 8.33913 11.9419H8.33496ZM9.16829 11.9419C9.16829 12.7292 9.38826 13.499 9.80031 14.1536C10.2124 14.8083 10.798 15.3185 11.4833 15.6198C12.1685 15.9211 12.9225 16 13.6499 15.8464C14.3773 15.6927 15.0455 15.3136 15.57 14.7569C16.0944 14.2001 16.4516 13.4908 16.5963 12.7186C16.741 11.9463 16.6667 11.1459 16.3829 10.4185C16.099 9.69107 15.6184 9.06934 15.0017 8.63191C14.385 8.19448 13.66 7.96097 12.9183 7.96097C11.9252 7.96471 10.9739 8.38548 10.272 9.13136C9.57018 9.87725 9.17488 10.8876 9.17246 11.9419H9.16829ZM18.335 5.75378C18.335 5.49133 18.4083 5.23476 18.5456 5.01654C18.683 4.79832 18.8782 4.62821 19.1066 4.52778C19.3351 4.42734 19.5863 4.40109 19.8288 4.45229C20.0713 4.50349 20.294 4.62988 20.4689 4.81546C20.6437 5.00104 20.7627 5.23752 20.811 5.49493C20.8592 5.75234 20.8345 6.01907 20.7398 6.26155C20.6452 6.50402 20.485 6.7113 20.2794 6.85711C20.0739 7.00292 19.8322 7.08075 19.585 7.08075C19.2542 7.07958 18.9373 6.93921 18.7038 6.69048C18.4703 6.44175 18.3391 6.10495 18.3391 5.75378H18.335Z" fill="currentColor"/>
</svg>
