<svg width="31" height="14" viewBox="0 0 31 14" fill="none" xmlns="http://www.w3.org/2000/svg">
  <path
    d="M1.97051 2.0426C-0.656837 4.77468 -0.656837 9.19804 1.97051 11.9301C2.19571 12.2684 2.62109 12.3464 2.94638 12.1123C3.27167 11.8781 3.34673 11.4357 3.12153 11.0975C3.07148 11.0454 2.99643 10.9674 2.94638 10.9154C0.869526 8.75571 0.869526 5.26906 2.94638 3.10941C5.02324 0.949771 8.37623 0.949771 10.4531 3.10941C12.5299 5.26906 12.5299 8.75571 10.4531 10.9154C9.02681 12.3985 6.97497 12.8668 5.17336 12.2944C4.82305 12.1383 4.39768 12.3204 4.24754 12.6847C4.09741 13.049 4.27256 13.4913 4.62287 13.6474C4.69794 13.6734 4.72297 13.6995 4.77301 13.6995C7.07507 14.428 9.65237 13.8296 11.479 11.9301C12.605 10.7592 13.2556 9.25008 13.4057 7.74093L24.319 7.74093V12.7647C24.319 13.181 24.6193 13.4932 24.9947 13.5192C25.395 13.5192 25.6953 13.207 25.7203 12.8167C25.7203 12.8167 25.7203 12.8167 25.7203 12.7647L25.7203 7.74093L29.5737 7.74093L29.5987 10.6398C29.5987 11.0561 29.899 11.3683 30.2743 11.3944C30.6747 11.3944 30.975 11.0821 31 10.6918C31 10.6918 31 10.6918 31 10.6398L30.975 7.01238C30.975 6.59607 30.6747 6.28382 30.2743 6.28382L13.4057 6.28383C13.2306 4.74866 12.605 3.26553 11.479 2.09464C8.85165 -0.689482 4.59786 -0.689475 1.97051 2.0426Z"
    fill="currentColor"/>
</svg>
