<svg xmlns="http://www.w3.org/2000/svg" viewBox="0 0 221.52 221.52">
    <path fill="currentColor" d="M76.86,87.32H59.1V105H76.71C85,105,88.6,102,88.6,96,88.6,90.48,84.92,87.32,76.86,87.32Z"/>
    <path fill="currentColor"
          d="M110.76,0A110.76,110.76,0,1,0,221.52,110.76,110.76,110.76,0,0,0,110.76,0Zm-6.5,127.84v3.52c0,4.83-.09,10.25.89,13.58H87.6c-1.17-3.1-1.31-7.27-1.31-14.74v-2.32c0-7.12-2.61-10.09-12.88-10.09H59.1v27.15H42.18V74.5H80.54c16.24,0,25.53,8,25.53,20.12,0,9.1-5.28,14.45-12.25,16.66C96.7,112.42,104.26,115.19,104.26,127.84Zm81.25-13c0,21.37-12,31.56-32.94,31.56-20.25,0-33.13-9.32-33.13-31.18V74.5h17.09v39.82c0,15,7.86,18.77,16.52,18.77,9.21,0,15.37-4,15.37-18.77V74.5h17.09Z"/>
</svg>