<svg width="16" height="20" viewBox="0 0 16 20" fill="none" xmlns="http://www.w3.org/2000/svg">
<path d="M6.18156 1.36535C5.63627 1.36535 5.09098 1.36535 4.54569 1.36535C4.19343 1.36535 3.84116 1.36535 3.48648 1.36535C3.2645 1.36535 3.04253 1.35802 2.82296 1.38489C2.8109 1.38733 2.80125 1.38733 2.78918 1.38978C2.8495 1.38245 2.90982 1.37268 2.96773 1.36535C2.8495 1.38245 2.73128 1.40687 2.61546 1.44107C2.55273 1.45817 2.49241 1.48015 2.43209 1.50457C2.38625 1.52167 2.27043 1.5754 2.47552 1.48503C2.44657 1.49724 2.41761 1.5119 2.38866 1.52656C2.27526 1.58273 2.16427 1.64868 2.06052 1.72195C2.03398 1.73905 2.00985 1.75859 1.98331 1.77813C2.15703 1.64624 2.05811 1.71951 2.02192 1.75126C1.97366 1.79279 1.92782 1.83675 1.88198 1.88072C1.83613 1.92468 1.79511 1.97353 1.75168 2.01994C1.72997 2.04436 1.71067 2.06879 1.69136 2.09321C1.82889 1.92224 1.74927 2.0175 1.72032 2.05658C1.64552 2.1616 1.58038 2.27151 1.52247 2.38631C1.50799 2.41562 1.49352 2.44493 1.48145 2.47424C1.42837 2.59148 1.5466 2.31059 1.49834 2.43028C1.47421 2.49134 1.4525 2.5524 1.4332 2.61591C1.39459 2.74291 1.36805 2.87236 1.34875 3.00426C1.35599 2.9432 1.36564 2.88214 1.37288 2.82352C1.3391 3.07998 1.35116 3.34132 1.35116 3.60023C1.35116 4.04965 1.35116 4.49662 1.35116 4.94604C1.35116 6.38711 1.35116 7.82817 1.35116 9.26924C1.35116 10.8202 1.35116 12.3736 1.35116 13.9246C1.35116 14.8479 1.35116 15.7736 1.35116 16.6968C1.35116 16.858 1.35357 17.0168 1.37288 17.1756C1.36564 17.1145 1.35599 17.0534 1.34875 16.9948C1.36564 17.1145 1.38977 17.2342 1.42355 17.3514C1.44044 17.4149 1.46215 17.476 1.48628 17.5371C1.50317 17.5835 1.55625 17.7007 1.46697 17.4931C1.47904 17.5224 1.49352 17.5517 1.50799 17.581C1.56349 17.6958 1.62863 17.8082 1.70102 17.9132C1.7179 17.9401 1.73721 17.9645 1.75651 17.9914C1.62622 17.8155 1.6986 17.9156 1.72997 17.9523C1.77099 18.0011 1.81442 18.0475 1.85785 18.0939C1.90128 18.1404 1.94953 18.1819 1.99537 18.2258C2.0195 18.2478 2.04363 18.2674 2.06776 18.2869C1.89886 18.1477 1.99296 18.2283 2.03157 18.2576C2.13532 18.3333 2.24389 18.3993 2.35729 18.4579C2.38625 18.4725 2.4152 18.4872 2.44415 18.4994C2.55997 18.5531 2.2825 18.4335 2.40072 18.4823C2.46104 18.5067 2.52136 18.5287 2.58409 18.5483C2.70956 18.5873 2.83744 18.6142 2.96773 18.6337C2.90741 18.6264 2.84709 18.6166 2.78918 18.6093C3.01598 18.6386 3.24279 18.6313 3.46959 18.6313C3.81944 18.6313 4.1693 18.6313 4.51915 18.6313C5.07168 18.6313 5.62662 18.6313 6.17915 18.6313C6.54831 18.6313 6.85473 18.9415 6.85473 19.3152C6.85473 19.6889 6.54831 19.9991 6.17915 19.9991C5.63386 19.9991 5.08857 19.9991 4.54328 19.9991C4.19101 19.9991 3.83874 19.9991 3.48407 19.9991C3.26209 19.9991 3.04011 20.0064 2.82055 19.9795C2.13049 19.8989 1.51282 19.6229 0.994068 19.1491C0.535638 18.729 0.202674 18.133 0.0747961 17.52C-3.06538e-07 17.1609 -1.61277e-08 16.8116 0 16.4526C4.86631e-08 15.3706 9.74209e-08 14.2861 1.46069e-07 13.2041C2.17339e-07 11.6189 2.88609e-07 10.0337 3.59878e-07 8.44857C4.20496e-07 7.10031 4.81224e-07 5.74961 5.41842e-07 4.40136C5.57765e-07 4.0472 5.73798e-07 3.6906 5.89721e-07 3.33644C6.18822e-07 2.68918 0.123051 2.06146 0.465667 1.50213C0.825173 0.911048 1.3584 0.488499 1.98573 0.222268C2.37177 0.0586209 2.79401 -1.77388e-08 3.21142 0C3.87735 2.83002e-08 4.54328 5.66003e-08 5.2068 8.47979e-08C5.53252 9.86403e-08 5.85825 1.12483e-07 6.18156 1.26223e-07C6.55072 1.41911e-07 6.85714 0.310196 6.85714 0.683897C6.85714 1.0576 6.55072 1.36535 6.18156 1.36535Z" fill="currentColor"/>
<path d="M5.27203 11.2591C6.01017 11.2591 6.7508 11.2591 7.48894 11.2591C9.05528 11.2591 8.33591 11.2591 9.90226 11.2591C11.321 11.2591 12.7372 11.2591 14.1559 11.2591C14.5362 11.2591 14.9191 11.2591 15.2994 11.2591C15.6822 11.2591 16 10.94 16 10.5556C16 10.1711 15.6822 9.85204 15.2994 9.85204C14.5613 9.85204 13.8206 9.85204 13.0825 9.85204C11.5161 9.85204 9.9498 9.85204 8.38345 9.85204C6.96474 9.85204 7.83423 9.85204 6.41551 9.85204C6.03519 9.85204 5.65236 9.85204 5.27203 9.85204C4.8892 9.85204 4.57143 10.1711 4.57143 10.5556C4.57143 10.9375 4.8892 11.2591 5.27203 11.2591Z" fill="currentColor"/>
<path d="M15.7948 10.0581C14.9766 9.23646 14.1559 8.41234 13.3377 7.59073C12.7297 6.98018 12.1217 6.36963 11.5137 5.75907C11.2434 5.48772 10.793 5.48772 10.5228 5.75907C10.2526 6.03043 10.2526 6.48269 10.5228 6.75405C11.341 7.57566 12.1617 8.39978 12.9799 9.22139C13.5879 9.83194 14.196 10.4425 14.804 11.053C15.0742 11.3244 15.5246 11.3244 15.7948 11.053C16.0651 10.7817 16.0651 10.3294 15.7948 10.0581Z" fill="currentColor"/>
<path d="M14.804 10.0581C13.9858 10.8797 13.1651 11.7038 12.3469 12.5254C11.7389 13.136 11.1308 13.7465 10.5228 14.3571C10.2526 14.6284 10.2526 15.0807 10.5228 15.352C10.793 15.6234 11.2434 15.6234 11.5137 15.352C12.3319 14.5304 13.1526 13.7063 13.9708 12.8847C14.5788 12.2741 15.1868 11.6636 15.7948 11.053C16.0651 10.7817 16.0651 10.3294 15.7948 10.0581C15.5246 9.78672 15.0742 9.78671 14.804 10.0581Z" fill="currentColor"/>
</svg>
