<svg width="207" height="123" viewBox="0 0 207 123" fill="none" xmlns="http://www.w3.org/2000/svg">
  <defs>
    <!-- Da gradient -->
    <linearGradient id="gradient" x1="0%" y1="0%" x2="100%" y2="0">
<!--      <stop offset="0%" style="stop-color: var(&#45;&#45;link-active)"/>
      <stop offset="50%" style="stop-color: var(&#45;&#45;link-inactive)"/>
      <stop offset="100%" style="stop-color: var(&#45;&#45;link-active)"/>-->


      <stop offset="0%" style="stop-color:#33235b;"/>
      <stop offset="25%" style="stop-color:#D62229;"/>
      <stop offset="50%" style="stop-color:#E97639;"/>
      <stop offset="75%" style="stop-color:#792042;"/>
      <stop offset="100%" style="stop-color:#33235b;"/>
    </linearGradient>

    <!-- Stitch 2 gradients together for seamless animation  -->
    <pattern id="pattern" x="0" y="0" width="300%" height="100%" patternUnits="userSpaceOnUse">
      <rect x="0" y="0" width="150%" height="100%" fill="url(#gradient)">
        <animate attributeType="XML"
                 attributeName="x"
                 from="0" to="150%"
                 dur="7s"
                 repeatCount="indefinite"/>
      </rect>
      <rect x="-150%" y="0" width="150%" height="100%" fill="url(#gradient)">
        <animate attributeType="XML"
                 attributeName="x"
                 from="-150%" to="0"
                 dur="7s"
                 repeatCount="indefinite"/>
      </rect>
    </pattern>
  </defs>
  <path
    fill-rule="evenodd"
    clip-rule="evenodd"
    d="M193.959 24.0187C192.772 23.3817 188.691 23.5674 184.014 24.594C179.301 25.6294 168.381 30.1892 162.661 33.9812C156.904 37.782 143.097 47.5661 139.911 50.0051C136.725 52.4442 125.587 60.9582 125.587 60.9582C125.587 60.9582 124.015 62.5007 122.778 60.7175C121.54 58.9342 118.369 55.8077 117.115 53.4878C115.861 51.1678 112.758 46.5959 113.196 41.1974C113.626 35.7625 114.97 34.8548 116.175 32.5908C117.379 30.3269 119.152 27.5765 120.418 25.7223C121.711 23.8228 123.376 20.9442 123.838 20.0203C124.3 19.0964 125.108 16.9293 123.849 16.3099C122.59 15.6906 119.319 16.0645 116.203 22.6966C114.563 26.1484 112.848 33.8283 112.499 35.9991C112.151 38.1698 111.699 38.821 111.699 38.821C111.699 38.821 106.802 47.5486 104.434 50.3671C102.067 53.1855 101.15 52.5598 101.895 50.2922C102.64 48.0246 104.5 42.974 101.907 42.835C99.3583 42.7237 97.3752 46.491 95.6754 52.0431C93.9395 57.604 93.6908 59.5572 93.0651 61.0619C92.4394 62.5665 90.4243 64.9513 88.7846 65.12C87.1539 65.3252 86.2592 63.2264 87.0113 61.6137C87.7545 59.9645 90.7539 53.477 90.7539 53.477C90.7539 53.477 91.1624 52.3344 90.3239 52.6551C89.4855 52.9758 88.7681 55.0435 88.097 56.6751C87.426 58.3067 85.8132 61.7132 85.062 63.0168C84.3019 64.2839 82.0197 65.5752 82.5198 63.8695C83.02 62.1638 83.5923 60.4404 83.6118 59.8949C83.6225 59.313 82.8667 59.0341 82.4235 59.7218C82.0163 60.4006 80.8903 60.4825 80.8052 58.7266C80.7201 56.9708 80.6732 54.4331 79.1921 55.8763C77.7021 57.2831 76.6362 58.3932 75.5616 62.5952C74.487 66.7972 74.5076 69.0709 74.7378 70.4824C74.9679 71.8938 75.4744 71.1522 74.842 71.8473C74.2096 72.5425 74.1651 72.3603 72.1343 73.8992C70.1035 75.438 68.748 77.0823 69.3224 74.586C69.8969 72.0897 70.2381 69.2641 70.6857 67.0306C71.1694 64.7882 72.3815 59.7415 72.4842 58.4418C72.5959 57.1786 72.6858 57.2339 72.9247 55.5534C73.1547 53.8364 73.7266 52.2677 72.9326 52.7706C72.1658 53.2283 71.4039 55.1138 70.922 56.7378C70.449 58.3983 68.0005 64.3263 67.1741 66.7296C66.3117 69.1418 63.9634 74.6978 63.4289 75.7939C62.8584 76.8988 62.7294 77.9345 61.6907 78.9993C60.6519 80.0641 58.6234 80.83 59.8561 78.0571C61.0887 75.2841 63.8393 67.6215 64.2046 65.8328C64.5699 64.0442 66.3739 56.7287 64.2806 54.884C62.1785 53.0029 59.0236 57.1337 56.5341 61.6427C54.0175 66.197 51.8927 72.355 50.8576 75.3114C49.859 78.1044 49.973 79.1966 49.3108 80.8647C48.6486 82.5327 47.877 84.691 47.2442 85.5407C46.6113 86.3905 45.0051 87.4781 45.2493 83.9424C45.4935 80.4067 45.6864 75.8793 45.7605 71.9603C45.8258 68.0049 45.3548 65.7639 45.5081 62.4821C45.6615 59.2004 45.6644 54.9898 47.3732 49.4742C49.082 43.9585 53.9549 34.194 55.5512 39.7906C56.2088 42.9515 56.0767 45.0694 56.0812 46.6518C56.0857 48.2343 56.0844 48.6981 56.3991 48.8916C56.7138 49.0851 57.5879 48.9102 57.4832 47.6998C57.4146 46.4806 57.3044 40.8686 56.5259 39.089C55.7474 37.3094 54.0583 35.8681 51.9092 37.8608C49.7511 39.8169 49.0262 41.3844 49.0262 41.3844L48.647 41.7088C48.647 41.7088 48.525 40.2709 48.5574 38.3705C48.5987 36.5065 48.1811 34.4843 46.603 35.2174C45.0248 35.9505 45.0067 39.1606 44.6521 40.3673C44.2885 41.5375 43.8702 42.9529 43.5067 44.1231C41.0792 52.1703 41.766 44.9732 41.0232 43.3393C40.2803 41.7055 38.4274 40.845 37.0256 42.9254C35.6237 45.0059 34.2242 49.4417 33.4406 52.6457C32.4772 55.7392 31.3003 61.0862 30.817 63.174C30.3249 65.2254 27.6866 74.5986 27.0053 76.6575C26.324 78.7165 25.5248 81.0746 24.8354 82.7879C24.1461 84.5012 23.2494 86.3037 22.9317 87.1924C22.7323 87.6273 22.4422 88.3162 22.2793 88.5877C22.2793 88.5877 21.4189 87.0985 21.0437 86.0314C20.1596 83.3507 17.327 78.6354 15.3304 77.6555C13.2977 76.6843 11.2598 77.5683 10.5331 79.7542C9.80644 81.9401 9.89285 83.2322 10.1471 85.6806C10.3925 88.0925 10.5785 89.1671 11.1657 91.7273C11.7889 94.2786 14.728 99.5859 17.154 98.4139C19.58 97.242 22.7774 90.7834 22.7774 90.7834C22.7774 90.7834 24.1825 90.7492 25.0125 90.2374C25.8425 89.7257 26.142 88.9187 25.2314 89.257C24.3208 89.5953 23.3942 89.2423 23.3942 89.2423L24.8806 85.9439C25.4956 85.0212 28.9915 74.9364 30.2833 70.3724C31.5751 65.8083 32.5937 62.3152 33.3786 58.6474C34.1996 54.9708 34.7099 52.8378 35.1719 51.9139C35.6338 50.9899 36.4554 50.2872 36.5231 51.8155C36.5908 53.3439 36.0005 58.2773 35.3148 61.8822C34.6291 65.4872 31.2602 78.4376 30.4681 81.4506C29.6761 84.4635 27.4373 92.6577 26.7098 95.1528C25.9911 97.6843 25.6636 98.8458 26.6993 98.8631C27.7439 98.917 27.3918 99.1961 28.1652 96.4194C28.9386 93.6428 31.4047 84.6592 31.8701 82.4985C32.3716 80.329 33.929 74.1938 34.5391 71.8433C35.1314 69.4199 36.1352 64.7717 36.5276 62.9378C36.9201 61.1039 37.224 58.7509 37.5065 57.5618C37.7891 56.3728 37.7993 55.9454 38.1691 55.7392C38.539 55.533 39.4914 56.3045 40.3771 55.2385C40.7567 54.7595 41.4429 54.1284 41.4429 54.1284C41.4429 54.1284 41.6579 54.5394 41.4025 55.6832C41.1111 56.8359 38.3863 64.917 37.4279 69.4382C36.4694 73.9595 35.0875 81.7513 34.7468 87.5506C34.4062 93.35 34.1028 95.5484 34.353 96.2597C34.6031 96.9711 35.4674 97.069 36.1928 95.3469C36.9182 93.6248 38.9299 86.0654 39.4038 84.0957C39.8777 82.1261 41.0436 77.5155 41.4721 75.6728C41.9006 73.8301 42.1947 71.7499 42.6588 70.053C43.1678 68.3838 43.5866 66.8138 43.7553 67.6609C43.9151 68.4716 43.8711 77.6746 43.7551 80.4837C43.639 83.2929 43.1684 87.3088 44.715 88.1669C46.2616 89.0251 48.0284 85.3106 48.5628 84.2144C49.0884 83.0819 49.7141 81.5772 50.8913 82.487C52.0686 83.3967 52.6503 84.6837 54.5071 84.1529C56.3728 83.6585 57.0821 81.2451 57.8663 81.0149C58.6866 80.776 59.1513 82.0529 60.6222 81.037C62.0931 80.0211 64.6292 74.9214 65.2273 73.6166C65.8615 72.303 66.9224 69.7651 67.4569 68.669C67.9913 67.5728 69.3576 65.3466 69.0804 67.8089C68.8393 70.2624 66.9913 77.2411 66.9001 77.6496C65.9526 78.3059 58.4463 82.9203 57.1667 89.567C55.923 96.2049 56.5527 102.849 58.5392 107.384C60.5258 111.92 62.0983 113.197 63.3968 109.442C64.7403 105.715 66.2798 89.9673 66.7399 86.5333C67.191 83.063 67.808 78.2389 69.4062 76.8057C71.0044 75.3725 73.651 72.6017 76.0125 71.9476C78.374 71.2936 78.8079 70.7241 79.6948 69.1943C80.5729 67.628 80.9805 66.7946 82.1888 66.2677C83.3883 65.7044 82.9908 66.1104 83.8124 65.4076C84.6339 64.7049 85.2121 64.1002 86.0288 65.098C86.8455 66.0958 87.1496 66.8712 89.268 66.1606C91.3865 65.45 91.977 63.645 92.7367 62.5325C93.4964 61.42 94.0011 61.2967 94.0371 61.2879C94.0371 61.2879 95.5748 62.1096 97.0653 60.5482C98.5557 58.9868 105.595 50.5855 107.287 47.8162C108.979 45.0469 110.427 42.8395 110.427 42.8395C110.427 42.8395 111.684 40.7943 111.778 42.7412C111.871 44.6881 112.965 49.7896 115.216 53.0633C117.467 56.3371 121.821 61.4919 122.494 62.2158C123.168 62.9396 123.14 62.9848 123.14 62.9848C123.14 62.9848 114.106 69.6332 111.201 71.5016C108.296 73.3699 101.565 77.7177 96.1205 79.3566C90.6761 80.9954 84.3385 83.2001 80.5004 86.8799C76.6623 90.5596 80.5727 89.9907 82.4926 89.4058C84.4126 88.8209 88.0185 87.6311 91.2393 85.6471C94.4602 83.663 99.1995 79.7631 99.1995 79.7631C99.1995 79.7631 100.859 79.0489 102.986 78.3747C105.113 77.7006 108.9 76.1576 115.677 74.8113C122.453 73.465 129.151 71.1722 129.452 70.056C129.716 68.9487 129.692 67.9117 128.381 66.6099C127.061 65.2716 124.761 63.0524 124.761 63.0524C124.761 63.0524 128.868 59.8477 132.289 57.2741C135.71 54.7005 145.909 46.7246 150.079 43.6205C154.248 40.5163 162.577 34.89 167.321 32.4179C172.066 29.9458 181.264 25.8452 186.669 25.1427C192.075 24.4402 191.588 24.6364 192.291 24.6966C193.2 24.6675 195.146 24.6557 193.959 24.0187ZM115.488 27.1197C117.066 22.949 118.857 20.2715 119.77 19.3148C120.718 18.3493 122.748 17.1196 123.286 17.7605C123.861 18.3926 123.336 19.3706 122.792 20.4303C122.213 21.4987 116.586 30.5207 116.034 31.3893C115.482 32.2579 113.891 34.346 113.891 34.346C113.891 34.346 113.909 31.2904 115.488 27.1197ZM18.7765 94.7347C17.8628 96.1551 17.3381 96.9785 16.2851 96.7336C15.2321 96.4888 13.9065 93.8772 13.3167 92.2447C12.7269 90.6121 11.9372 86.4406 11.7034 83.1375C11.4695 79.8345 12.0752 79.0299 13.5168 78.8323C14.9583 78.6347 15.8637 80.1515 16.9137 81.4786C17.9636 82.8057 18.4008 84.2824 19.3395 86.7181C20.2783 89.1537 21.492 89.9001 21.492 89.9001C21.492 89.9001 20.2963 92.355 18.7765 94.7347ZM43.0071 48.8026C43.3163 47.7229 43.6608 46.9436 43.934 45.8726C44.2072 44.8017 44.0786 45.6828 45.2494 42.5001C46.4113 39.281 46.78 42.6669 46.307 44.3274C45.7615 46.1601 45.8709 45.6699 44.9377 47.6358C43.932 49.774 42.6357 52.7557 42.2671 52.4981C41.9346 52.2317 42.6978 49.8824 43.0071 48.8026ZM40.2194 53.6548C39.7312 54.3148 39.0454 54.7913 38.5959 54.5149C38.1464 54.2385 38.0002 51.7637 37.8978 49.7803C37.7953 47.797 36.875 48.408 36.875 48.408C36.875 48.408 34.5745 49.781 36.9923 45.135C37.4831 43.5475 39.3114 43.5257 39.7508 44.2295C40.1901 44.9333 40.2324 45.8885 40.4452 47.0724C40.658 48.2564 40.5312 48.5191 40.5468 49.365C40.5713 50.2473 40.6716 53.0037 40.2194 53.6548ZM42.4951 64.2223C41.9122 66.5276 39.998 74.6425 39.3154 77.1652C38.6328 79.688 37.1676 88.2339 36.3634 89.1642C35.5592 90.0944 36.8695 82.1657 36.9842 79.8203C37.0989 77.4749 38.0187 73.89 38.6225 70.5755C39.1902 67.2697 40.8523 62.3449 41.5612 60.0861C42.2612 57.7908 43.4185 52.9893 44.1022 53.2858C44.7858 53.5822 44.0654 56.7322 43.7998 58.3033C43.4247 60.3647 42.9508 62.3344 42.4951 64.2223ZM54.0535 82.1394C51.3546 81.0993 54.9943 71.1339 56.238 67.6243C57.4907 64.1513 60.7425 57.6022 61.556 56.5538C62.4056 55.4965 63.2058 55.9576 63.7796 56.8989C64.3533 57.8402 64.1148 59.3661 64.0508 59.7294C63.9867 60.0927 63.5497 61.7443 63.0491 63.6046C62.5485 65.4649 58.5911 76.319 58.5911 76.319C58.5911 76.319 56.7524 83.1796 54.0535 82.1394ZM66.4133 80.9742C66.0587 82.1809 64.6626 91.7914 64.0099 96.4697C63.3572 101.148 62.9032 108.829 61.6588 109.365C60.3784 109.909 58.5265 102.328 58.0593 95.5672C57.601 88.8429 59.9623 85.0604 62.0847 82.9585C64.1982 80.82 66.7417 79.5035 66.7417 79.5035C66.7417 79.5035 66.7769 79.8039 66.4133 80.9742ZM80.1146 60.9037C80.4965 62.7802 79.8758 65.7126 78.3747 67.856C76.8736 69.9993 76.4703 69.2867 76.2678 67.6754C76.0563 66.0277 77.0495 61.9614 77.7939 59.8484C78.5295 57.699 79.7148 58.9544 80.1146 60.9037ZM96.3144 58.5688C94.8719 59.0756 96.1033 56.7664 96.1033 56.7664C96.1033 56.7664 96.6943 54.8068 97.0298 53.991C97.3653 53.1752 97.9839 51.0157 97.8521 49.8506C97.7203 48.6855 97.7555 48.9859 98.127 48.1613C98.4986 47.3367 99.7847 44.7824 100.461 44.5787C101.137 44.3749 102.065 44.2641 102.135 44.8649C102.205 45.4656 101.695 47.7533 101.695 47.7533C101.695 47.7533 101.549 48.4069 101.366 49.2239C101.184 50.041 99.9935 53.7692 99.7296 54.7219C99.4297 55.6835 97.7568 58.0619 96.3144 58.5688ZM89.5761 84.6243C87.6641 85.5548 85.5163 87.0837 82.8655 88.1174C80.2148 89.1511 81.4075 87.7783 81.9496 87.1825C82.4916 86.5866 85.1437 85.0891 87.3623 84.0064C89.5809 82.9237 95.578 80.107 95.7471 80.7996C95.9163 81.4921 91.488 83.6938 89.5761 84.6243ZM126.113 65.9279C126.751 66.5059 128.036 67.6984 128.268 68.1823C128.501 68.6661 129.464 69.0103 127.777 69.9244C126.099 70.875 123.017 71.5506 121.179 71.9997C119.34 72.4488 113.176 73.9546 113.176 73.9546L109.715 74.8C109.715 74.8 106.505 76.0475 109.501 73.9252C112.461 71.8117 120.871 66.2042 122.631 64.6541C123.344 64.1323 123.833 63.3178 124.255 63.794C124.228 63.8393 125.484 65.3863 126.113 65.9279Z"
    fill="url(#pattern)"
  />
</svg>
