<svg width="12" height="20" viewBox="0 0 12 20" fill="none" xmlns="http://www.w3.org/2000/svg">
<path fill-rule="evenodd" clip-rule="evenodd" d="M0.930498 0.0631352C1.76473 -0.0414285 2.59895 -0.00657412 3.43318 0.0979901C7.91715 0.725374 11.4974 4.45482 11.9493 8.95107C12.2273 11.844 11.3583 14.5975 9.44657 16.7237C7.5348 18.8149 4.82356 20 2.00804 20C1.66045 20 1.27809 19.9651 0.930498 19.9303C0.478625 19.8954 0.13103 19.5817 0.0267517 19.1286C-0.077526 18.6755 0.13103 18.2224 0.513385 18.0133C3.3289 16.3403 5.06688 13.2731 5.06688 9.99671C5.06688 6.72038 3.3289 3.65316 0.513385 1.98014C0.13103 1.73616 -0.077526 1.3179 0.0267517 0.864792C0.13103 0.411682 0.478625 0.0979901 0.930498 0.0631352ZM1.03027 18.9353L1.01885 18.9341V18.9341C1.01393 18.9338 1.00954 18.9308 1.00778 18.9262C1.00568 18.9207 1.00338 18.9135 1.00128 18.9044C0.999829 18.8981 0.999886 18.8939 1.00014 18.8914V18.8914C1.00047 18.8881 1.00283 18.8854 1.00574 18.8838L1.00889 18.8821L1.02422 18.873C4.14439 17.0189 6.06688 13.6242 6.06688 9.99671C6.06688 6.37655 4.15218 2.98828 1.04317 1.13175C1.02653 1.12028 1.01545 1.10978 1.00858 1.10206C1.0059 1.09904 1.00386 1.09646 1.00234 1.09437C1.00124 1.09284 1.00089 1.09091 1.00128 1.08907V1.08907C1.00212 1.0854 1.003 1.08205 1.00388 1.07899C1.00737 1.0669 1.01864 1.05931 1.03119 1.05834V1.05834L1.05487 1.05537C1.77876 0.964638 2.52244 0.992063 3.30163 1.08933C7.32457 1.65558 10.5475 5.01421 10.954 9.04889C11.2057 11.6729 10.4199 14.1439 8.70575 16.0519C6.98452 17.9331 4.54285 19 2.00804 19C1.71632 19 1.37947 18.9703 1.03027 18.9353Z" fill="currentColor"/>
</svg>
